<?xml version="1.0" encoding="UTF-8" standalone="no"?>
<!DOCTYPE svg PUBLIC "-//W3C//DTD SVG 1.1//EN"
 "http://www.w3.org/Graphics/SVG/1.1/DTD/svg11.dtd">
<!-- Generated by graphviz version 2.43.0 (0)
 -->
<!-- Title: proofs Pages: 1 -->
<svg width="2566pt" height="491pt"
 viewBox="0.00 0.00 2566.00 491.00" xmlns="http://www.w3.org/2000/svg" xmlns:xlink="http://www.w3.org/1999/xlink">
<g id="graph0" class="graph" transform="scale(1 1) rotate(0) translate(4 487)">
<title>proofs</title>
<polygon fill="white" stroke="transparent" points="-4,4 -4,-487 2562,-487 2562,4 -4,4"/>
<!-- element_order_1_3&#39; -->
<g id="node1" class="node">
<title>element_order_1_3&#39;</title>
<ellipse fill="none" stroke="black" cx="100.74" cy="-284" rx="100.98" ry="18"/>
<text text-anchor="middle" x="100.74" y="-280.3" font-family="Times,serif" font-size="14.00">element_order_1_3&#39;</text>
</g>
<!-- Same_set_CycleGroup_gpower -->
<g id="node2" class="node">
<title>Same_set_CycleGroup_gpower</title>
<ellipse fill="none" stroke="black" cx="916.93" cy="-311" rx="152.97" ry="18"/>
<text text-anchor="middle" x="916.93" y="-307.3" font-family="Times,serif" font-size="14.00">Same_set_CycleGroup_gpower</text>
</g>
<!-- element_order_1_3&#39;&#45;&gt;Same_set_CycleGroup_gpower -->
<g id="edge1" class="edge">
<title>element_order_1_3&#39;&#45;&gt;Same_set_CycleGroup_gpower</title>
<path fill="none" stroke="black" d="M199.95,-287.26C338.84,-291.86 594.08,-300.33 759.3,-305.81"/>
<polygon fill="black" stroke="black" points="759.44,-309.31 769.55,-306.15 759.68,-302.32 759.44,-309.31"/>
</g>
<!-- cardinal_gpower_kernel_nontrivial -->
<g id="node3" class="node">
<title>cardinal_gpower_kernel_nontrivial</title>
<ellipse fill="none" stroke="black" cx="1301.29" cy="-426" rx="170.07" ry="18"/>
<text text-anchor="middle" x="1301.29" y="-422.3" font-family="Times,serif" font-size="14.00">cardinal_gpower_kernel_nontrivial</text>
</g>
<!-- element_order_1_3&#39;&#45;&gt;cardinal_gpower_kernel_nontrivial -->
<g id="edge2" class="edge">
<title>element_order_1_3&#39;&#45;&gt;cardinal_gpower_kernel_nontrivial</title>
<path fill="none" stroke="black" d="M167.15,-297.63C189.4,-301.98 214.47,-306.55 237.48,-310 564.88,-359.14 951.99,-396.12 1156.67,-414.02"/>
<polygon fill="black" stroke="black" points="1156.61,-417.53 1166.88,-414.91 1157.22,-410.56 1156.61,-417.53"/>
</g>
<!-- gpower_kernel_nontrivial_element_order3_exist -->
<g id="node4" class="node">
<title>gpower_kernel_nontrivial_element_order3_exist</title>
<ellipse fill="none" stroke="black" cx="470.16" cy="-95" rx="232.86" ry="18"/>
<text text-anchor="middle" x="470.16" y="-91.3" font-family="Times,serif" font-size="14.00">gpower_kernel_nontrivial_element_order3_exist</text>
</g>
<!-- element_order_1_3&#39;&#45;&gt;gpower_kernel_nontrivial_element_order3_exist -->
<g id="edge3" class="edge">
<title>element_order_1_3&#39;&#45;&gt;gpower_kernel_nontrivial_element_order3_exist</title>
<path fill="none" stroke="black" d="M135,-266.89C201.49,-232.69 350.82,-155.88 425.25,-117.59"/>
<polygon fill="black" stroke="black" points="427.09,-120.58 434.38,-112.89 423.89,-114.35 427.09,-120.58"/>
</g>
<!-- element_order_3_1 -->
<g id="node5" class="node">
<title>element_order_3_1</title>
<ellipse fill="none" stroke="black" cx="470.16" cy="-257" rx="98.58" ry="18"/>
<text text-anchor="middle" x="470.16" y="-253.3" font-family="Times,serif" font-size="14.00">element_order_3_1</text>
</g>
<!-- element_order_1_3&#39;&#45;&gt;element_order_3_1 -->
<g id="edge4" class="edge">
<title>element_order_1_3&#39;&#45;&gt;element_order_3_1</title>
<path fill="none" stroke="black" d="M194.46,-277.19C247.49,-273.29 314.06,-268.4 368.39,-264.41"/>
<polygon fill="black" stroke="black" points="368.67,-267.89 378.38,-263.67 368.15,-260.91 368.67,-267.89"/>
</g>
<!-- homomorphic_gpower -->
<g id="node9" class="node">
<title>homomorphic_gpower</title>
<ellipse fill="none" stroke="black" cx="1658.37" cy="-288" rx="113.18" ry="18"/>
<text text-anchor="middle" x="1658.37" y="-284.3" font-family="Times,serif" font-size="14.00">homomorphic_gpower</text>
</g>
<!-- Same_set_CycleGroup_gpower&#45;&gt;homomorphic_gpower -->
<g id="edge33" class="edge">
<title>Same_set_CycleGroup_gpower&#45;&gt;homomorphic_gpower</title>
<path fill="none" stroke="black" d="M1064.9,-306.43C1203.2,-302.13 1407.79,-295.76 1536.76,-291.75"/>
<polygon fill="black" stroke="black" points="1537.18,-295.24 1547.07,-291.43 1536.96,-288.24 1537.18,-295.24"/>
</g>
<!-- gpower_inv -->
<g id="node10" class="node">
<title>gpower_inv</title>
<ellipse fill="none" stroke="black" cx="1658.37" cy="-342" rx="63.89" ry="18"/>
<text text-anchor="middle" x="1658.37" y="-338.3" font-family="Times,serif" font-size="14.00">gpower_inv</text>
</g>
<!-- Same_set_CycleGroup_gpower&#45;&gt;gpower_inv -->
<g id="edge32" class="edge">
<title>Same_set_CycleGroup_gpower&#45;&gt;gpower_inv</title>
<path fill="none" stroke="black" d="M1061.37,-317.01C1218.29,-323.59 1463.55,-333.87 1584.67,-338.95"/>
<polygon fill="black" stroke="black" points="1584.8,-342.46 1594.94,-339.38 1585.09,-335.47 1584.8,-342.46"/>
</g>
<!-- generated_* -->
<g id="node30" class="node">
<title>generated_*</title>
<ellipse fill="none" stroke="black" cx="1301.29" cy="-372" rx="66.89" ry="18"/>
<text text-anchor="middle" x="1301.29" y="-368.3" font-family="Times,serif" font-size="14.00">generated_*</text>
</g>
<!-- Same_set_CycleGroup_gpower&#45;&gt;generated_* -->
<g id="edge34" class="edge">
<title>Same_set_CycleGroup_gpower&#45;&gt;generated_*</title>
<path fill="none" stroke="black" d="M1008.54,-325.46C1077.47,-336.45 1170.78,-351.34 1233.14,-361.29"/>
<polygon fill="black" stroke="black" points="1232.82,-364.78 1243.25,-362.9 1233.93,-357.87 1232.82,-364.78"/>
</g>
<!-- cardinal_gpower_not_injective -->
<g id="node8" class="node">
<title>cardinal_gpower_not_injective</title>
<ellipse fill="none" stroke="black" cx="1658.37" cy="-411" rx="150.57" ry="18"/>
<text text-anchor="middle" x="1658.37" y="-407.3" font-family="Times,serif" font-size="14.00">cardinal_gpower_not_injective</text>
</g>
<!-- cardinal_gpower_kernel_nontrivial&#45;&gt;cardinal_gpower_not_injective -->
<g id="edge7" class="edge">
<title>cardinal_gpower_kernel_nontrivial&#45;&gt;cardinal_gpower_not_injective</title>
<path fill="none" stroke="black" d="M1459.58,-419.36C1474.95,-418.71 1490.53,-418.05 1505.84,-417.4"/>
<polygon fill="black" stroke="black" points="1506.01,-420.9 1515.86,-416.98 1505.72,-413.9 1506.01,-420.9"/>
</g>
<!-- cardinal_gpower_kernel_nontrivial&#45;&gt;homomorphic_gpower -->
<g id="edge8" class="edge">
<title>cardinal_gpower_kernel_nontrivial&#45;&gt;homomorphic_gpower</title>
<path fill="none" stroke="black" d="M1442.09,-415.73C1452.66,-411.44 1462.66,-405.95 1471.58,-399 1503.62,-374.03 1475.8,-340.29 1507.58,-315 1517.53,-307.08 1529.04,-301.19 1541.16,-296.83"/>
<polygon fill="black" stroke="black" points="1542.55,-300.06 1550.99,-293.66 1540.4,-293.4 1542.55,-300.06"/>
</g>
<!-- cardinal_gpower_kernel_nontrivial&#45;&gt;gpower_inv -->
<g id="edge9" class="edge">
<title>cardinal_gpower_kernel_nontrivial&#45;&gt;gpower_inv</title>
<path fill="none" stroke="black" d="M1412.4,-412.32C1432.28,-408.75 1452.68,-404.36 1471.58,-399 1488.25,-394.27 1491.2,-389.68 1507.58,-384 1537.71,-373.54 1571.91,-363.8 1600.02,-356.33"/>
<polygon fill="black" stroke="black" points="1600.91,-359.72 1609.69,-353.79 1599.13,-352.95 1600.91,-359.72"/>
</g>
<!-- op_inv -->
<g id="node11" class="node">
<title>op_inv</title>
<ellipse fill="none" stroke="black" cx="1658.37" cy="-465" rx="40.09" ry="18"/>
<text text-anchor="middle" x="1658.37" y="-461.3" font-family="Times,serif" font-size="14.00">op_inv</text>
</g>
<!-- cardinal_gpower_kernel_nontrivial&#45;&gt;op_inv -->
<g id="edge10" class="edge">
<title>cardinal_gpower_kernel_nontrivial&#45;&gt;op_inv</title>
<path fill="none" stroke="black" d="M1420.03,-438.93C1484.36,-446 1560.53,-454.36 1608.9,-459.68"/>
<polygon fill="black" stroke="black" points="1608.76,-463.18 1619.08,-460.79 1609.52,-456.22 1608.76,-463.18"/>
</g>
<!-- decidable_eq_G_decidable_in_kernel -->
<g id="node6" class="node">
<title>decidable_eq_G_decidable_in_kernel</title>
<ellipse fill="none" stroke="black" cx="916.93" cy="-41" rx="178.17" ry="18"/>
<text text-anchor="middle" x="916.93" y="-37.3" font-family="Times,serif" font-size="14.00">decidable_eq_G_decidable_in_kernel</text>
</g>
<!-- gpower_kernel_nontrivial_element_order3_exist&#45;&gt;decidable_eq_G_decidable_in_kernel -->
<g id="edge5" class="edge">
<title>gpower_kernel_nontrivial_element_order3_exist&#45;&gt;decidable_eq_G_decidable_in_kernel</title>
<path fill="none" stroke="black" d="M595.94,-79.85C657.28,-72.4 730.98,-63.45 792.18,-56.02"/>
<polygon fill="black" stroke="black" points="792.77,-59.48 802.28,-54.8 791.93,-52.53 792.77,-59.48"/>
</g>
<!-- epsilon_smallest -->
<g id="node7" class="node">
<title>epsilon_smallest</title>
<ellipse fill="none" stroke="green" cx="916.93" cy="-95" rx="87.18" ry="18"/>
<text text-anchor="middle" x="916.93" y="-91.3" font-family="Times,serif" font-size="14.00">epsilon_smallest</text>
</g>
<!-- gpower_kernel_nontrivial_element_order3_exist&#45;&gt;epsilon_smallest -->
<g id="edge6" class="edge">
<title>gpower_kernel_nontrivial_element_order3_exist&#45;&gt;epsilon_smallest</title>
<path fill="none" stroke="black" d="M702.99,-95C744.15,-95 784.88,-95 819.53,-95"/>
<polygon fill="black" stroke="black" points="819.6,-98.5 829.6,-95 819.6,-91.5 819.6,-98.5"/>
</g>
<!-- element_order_3_1&#45;&gt;Same_set_CycleGroup_gpower -->
<g id="edge23" class="edge">
<title>element_order_3_1&#45;&gt;Same_set_CycleGroup_gpower</title>
<path fill="none" stroke="black" d="M552.74,-266.9C621.86,-275.3 721.81,-287.43 799.37,-296.85"/>
<polygon fill="black" stroke="black" points="799.33,-300.37 809.68,-298.1 800.17,-293.42 799.33,-300.37"/>
</g>
<!-- gpowerEF_InjectiveEF -->
<g id="node21" class="node">
<title>gpowerEF_InjectiveEF</title>
<ellipse fill="none" stroke="black" cx="916.93" cy="-257" rx="116.18" ry="18"/>
<text text-anchor="middle" x="916.93" y="-253.3" font-family="Times,serif" font-size="14.00">gpowerEF_InjectiveEF</text>
</g>
<!-- element_order_3_1&#45;&gt;gpowerEF_InjectiveEF -->
<g id="edge21" class="edge">
<title>element_order_3_1&#45;&gt;gpowerEF_InjectiveEF</title>
<path fill="none" stroke="black" d="M569.04,-257C634.13,-257 720.21,-257 790.34,-257"/>
<polygon fill="black" stroke="black" points="790.57,-260.5 800.57,-257 790.57,-253.5 790.57,-260.5"/>
</g>
<!-- gpowerEF_SurjectiveEF -->
<g id="node22" class="node">
<title>gpowerEF_SurjectiveEF</title>
<ellipse fill="none" stroke="black" cx="916.93" cy="-149" rx="123.48" ry="18"/>
<text text-anchor="middle" x="916.93" y="-145.3" font-family="Times,serif" font-size="14.00">gpowerEF_SurjectiveEF</text>
</g>
<!-- element_order_3_1&#45;&gt;gpowerEF_SurjectiveEF -->
<g id="edge22" class="edge">
<title>element_order_3_1&#45;&gt;gpowerEF_SurjectiveEF</title>
<path fill="none" stroke="black" d="M516.58,-241.09C569.4,-223.09 659.52,-193.95 738.84,-176 762.57,-170.63 788.33,-166.02 812.66,-162.21"/>
<polygon fill="black" stroke="black" points="813.28,-165.66 822.63,-160.68 812.22,-158.74 813.28,-165.66"/>
</g>
<!-- gpower_Same_set_lt_nat -->
<g id="node23" class="node">
<title>gpower_Same_set_lt_nat</title>
<ellipse fill="none" stroke="black" cx="916.93" cy="-203" rx="124.58" ry="18"/>
<text text-anchor="middle" x="916.93" y="-199.3" font-family="Times,serif" font-size="14.00">gpower_Same_set_lt_nat</text>
</g>
<!-- element_order_3_1&#45;&gt;gpower_Same_set_lt_nat -->
<g id="edge24" class="edge">
<title>element_order_3_1&#45;&gt;gpower_Same_set_lt_nat</title>
<path fill="none" stroke="black" d="M552.74,-247.1C625.37,-238.28 732.04,-225.33 811,-215.74"/>
<polygon fill="black" stroke="black" points="811.47,-219.21 820.97,-214.53 810.62,-212.26 811.47,-219.21"/>
</g>
<!-- Same_set_im_exists_gpower -->
<g id="node12" class="node">
<title>Same_set_im_exists_gpower</title>
<ellipse fill="none" stroke="black" cx="1986.84" cy="-465" rx="141.88" ry="18"/>
<text text-anchor="middle" x="1986.84" y="-461.3" font-family="Times,serif" font-size="14.00">Same_set_im_exists_gpower</text>
</g>
<!-- cardinal_gpower_not_injective&#45;&gt;Same_set_im_exists_gpower -->
<g id="edge11" class="edge">
<title>cardinal_gpower_not_injective&#45;&gt;Same_set_im_exists_gpower</title>
<path fill="none" stroke="black" d="M1747.28,-425.54C1791.27,-432.82 1844.59,-441.64 1889.66,-449.09"/>
<polygon fill="black" stroke="black" points="1889.3,-452.58 1899.74,-450.76 1890.45,-445.67 1889.3,-452.58"/>
</g>
<!-- Pigeonhole_bis -->
<g id="node13" class="node">
<title>Pigeonhole_bis</title>
<ellipse fill="none" stroke="red" cx="1986.84" cy="-411" rx="79.89" ry="18"/>
<text text-anchor="middle" x="1986.84" y="-407.3" font-family="Times,serif" font-size="14.00">Pigeonhole_bis</text>
</g>
<!-- cardinal_gpower_not_injective&#45;&gt;Pigeonhole_bis -->
<g id="edge12" class="edge">
<title>cardinal_gpower_not_injective&#45;&gt;Pigeonhole_bis</title>
<path fill="none" stroke="black" d="M1809.23,-411C1839.1,-411 1869.58,-411 1896.62,-411"/>
<polygon fill="black" stroke="black" points="1896.81,-414.5 1906.81,-411 1896.81,-407.5 1896.81,-414.5"/>
</g>
<!-- infinite_Z -->
<g id="node14" class="node">
<title>infinite_Z</title>
<ellipse fill="none" stroke="black" cx="1986.84" cy="-357" rx="53.89" ry="18"/>
<text text-anchor="middle" x="1986.84" y="-353.3" font-family="Times,serif" font-size="14.00">infinite_Z</text>
</g>
<!-- cardinal_gpower_not_injective&#45;&gt;infinite_Z -->
<g id="edge13" class="edge">
<title>cardinal_gpower_not_injective&#45;&gt;infinite_Z</title>
<path fill="none" stroke="black" d="M1747.28,-396.46C1804.71,-386.96 1878.06,-374.83 1928.17,-366.54"/>
<polygon fill="black" stroke="black" points="1928.89,-369.97 1938.18,-364.88 1927.74,-363.06 1928.89,-369.97"/>
</g>
<!-- Included_Nat2Z_Z -->
<g id="node15" class="node">
<title>Included_Nat2Z_Z</title>
<ellipse fill="none" stroke="black" cx="2259.42" cy="-411" rx="94.78" ry="18"/>
<text text-anchor="middle" x="2259.42" y="-407.3" font-family="Times,serif" font-size="14.00">Included_Nat2Z_Z</text>
</g>
<!-- infinite_Z&#45;&gt;Included_Nat2Z_Z -->
<g id="edge14" class="edge">
<title>infinite_Z&#45;&gt;Included_Nat2Z_Z</title>
<path fill="none" stroke="black" d="M2034.13,-365.7C2061.59,-370.9 2097.07,-377.71 2128.53,-384 2147,-387.69 2166.93,-391.78 2185.5,-395.64"/>
<polygon fill="black" stroke="black" points="2184.86,-399.08 2195.36,-397.69 2186.29,-392.23 2184.86,-399.08"/>
</g>
<!-- infinite_included -->
<g id="node16" class="node">
<title>infinite_included</title>
<ellipse fill="none" stroke="black" cx="2259.42" cy="-357" rx="87.18" ry="18"/>
<text text-anchor="middle" x="2259.42" y="-353.3" font-family="Times,serif" font-size="14.00">infinite_included</text>
</g>
<!-- infinite_Z&#45;&gt;infinite_included -->
<g id="edge15" class="edge">
<title>infinite_Z&#45;&gt;infinite_included</title>
<path fill="none" stroke="black" d="M2040.97,-357C2075.38,-357 2121.2,-357 2161.9,-357"/>
<polygon fill="black" stroke="black" points="2162.13,-360.5 2172.13,-357 2162.13,-353.5 2162.13,-360.5"/>
</g>
<!-- infinite_Nat2Z -->
<g id="node17" class="node">
<title>infinite_Nat2Z</title>
<ellipse fill="none" stroke="black" cx="2259.42" cy="-303" rx="77.19" ry="18"/>
<text text-anchor="middle" x="2259.42" y="-299.3" font-family="Times,serif" font-size="14.00">infinite_Nat2Z</text>
</g>
<!-- infinite_Z&#45;&gt;infinite_Nat2Z -->
<g id="edge16" class="edge">
<title>infinite_Z&#45;&gt;infinite_Nat2Z</title>
<path fill="none" stroke="black" d="M2033.43,-347.9C2076.27,-339.35 2140.94,-326.45 2189.97,-316.66"/>
<polygon fill="black" stroke="black" points="2190.74,-320.08 2199.86,-314.69 2189.37,-313.21 2190.74,-320.08"/>
</g>
<!-- contrapos -->
<g id="node18" class="node">
<title>contrapos</title>
<ellipse fill="none" stroke="black" cx="2474.15" cy="-357" rx="56.59" ry="18"/>
<text text-anchor="middle" x="2474.15" y="-353.3" font-family="Times,serif" font-size="14.00">contrapos</text>
</g>
<!-- infinite_included&#45;&gt;contrapos -->
<g id="edge20" class="edge">
<title>infinite_included&#45;&gt;contrapos</title>
<path fill="none" stroke="black" d="M2346.64,-357C2366.85,-357 2388.06,-357 2407.22,-357"/>
<polygon fill="black" stroke="black" points="2407.34,-360.5 2417.34,-357 2407.34,-353.5 2407.34,-360.5"/>
</g>
<!-- infinite_Nat2Z&#45;&gt;contrapos -->
<g id="edge17" class="edge">
<title>infinite_Nat2Z&#45;&gt;contrapos</title>
<path fill="none" stroke="black" d="M2312.46,-316.21C2345.01,-324.47 2386.84,-335.09 2419.66,-343.42"/>
<polygon fill="black" stroke="black" points="2418.98,-346.86 2429.54,-345.93 2420.71,-340.08 2418.98,-346.86"/>
</g>
<!-- Pigeonhole_ter -->
<g id="node19" class="node">
<title>Pigeonhole_ter</title>
<ellipse fill="none" stroke="red" cx="2474.15" cy="-249" rx="79.89" ry="18"/>
<text text-anchor="middle" x="2474.15" y="-245.3" font-family="Times,serif" font-size="14.00">Pigeonhole_ter</text>
</g>
<!-- infinite_Nat2Z&#45;&gt;Pigeonhole_ter -->
<g id="edge18" class="edge">
<title>infinite_Nat2Z&#45;&gt;Pigeonhole_ter</title>
<path fill="none" stroke="black" d="M2312.46,-289.79C2342.09,-282.27 2379.42,-272.79 2410.64,-264.87"/>
<polygon fill="black" stroke="black" points="2411.71,-268.21 2420.54,-262.35 2409.99,-261.42 2411.71,-268.21"/>
</g>
<!-- injective_Nat2Z -->
<g id="node20" class="node">
<title>injective_Nat2Z</title>
<ellipse fill="none" stroke="black" cx="2474.15" cy="-303" rx="83.69" ry="18"/>
<text text-anchor="middle" x="2474.15" y="-299.3" font-family="Times,serif" font-size="14.00">injective_Nat2Z</text>
</g>
<!-- infinite_Nat2Z&#45;&gt;injective_Nat2Z -->
<g id="edge19" class="edge">
<title>infinite_Nat2Z&#45;&gt;injective_Nat2Z</title>
<path fill="none" stroke="black" d="M2336.92,-303C2350.82,-303 2365.46,-303 2379.78,-303"/>
<polygon fill="black" stroke="black" points="2380.13,-306.5 2390.13,-303 2380.13,-299.5 2380.13,-306.5"/>
</g>
<!-- element_order3_full -->
<g id="node31" class="node">
<title>element_order3_full</title>
<ellipse fill="none" stroke="black" cx="1301.29" cy="-242" rx="103.18" ry="18"/>
<text text-anchor="middle" x="1301.29" y="-238.3" font-family="Times,serif" font-size="14.00">element_order3_full</text>
</g>
<!-- gpowerEF_InjectiveEF&#45;&gt;element_order3_full -->
<g id="edge35" class="edge">
<title>gpowerEF_InjectiveEF&#45;&gt;element_order3_full</title>
<path fill="none" stroke="black" d="M1029.81,-252.61C1080.32,-250.63 1139.82,-248.3 1190.13,-246.32"/>
<polygon fill="black" stroke="black" points="1190.54,-249.81 1200.39,-245.92 1190.26,-242.81 1190.54,-249.81"/>
</g>
<!-- gpower_order_plus_mult -->
<g id="node24" class="node">
<title>gpower_order_plus_mult</title>
<ellipse fill="none" stroke="black" cx="1301.29" cy="-180" rx="124.58" ry="18"/>
<text text-anchor="middle" x="1301.29" y="-176.3" font-family="Times,serif" font-size="14.00">gpower_order_plus_mult</text>
</g>
<!-- gpower_Same_set_lt_nat&#45;&gt;gpower_order_plus_mult -->
<g id="edge25" class="edge">
<title>gpower_Same_set_lt_nat&#45;&gt;gpower_order_plus_mult</title>
<path fill="none" stroke="black" d="M1032.39,-196.11C1077.59,-193.4 1129.64,-190.26 1175.78,-187.49"/>
<polygon fill="black" stroke="black" points="1176.06,-190.98 1185.83,-186.88 1175.64,-183.99 1176.06,-190.98"/>
</g>
<!-- gpower_order_plus_mult&#45;&gt;homomorphic_gpower -->
<g id="edge26" class="edge">
<title>gpower_order_plus_mult&#45;&gt;homomorphic_gpower</title>
<path fill="none" stroke="black" d="M1406.93,-189.74C1429.4,-195.01 1452.2,-202.98 1471.58,-215 1493.64,-228.69 1485.35,-247.6 1507.58,-261 1519.42,-268.14 1532.67,-273.48 1546.26,-277.47"/>
<polygon fill="black" stroke="black" points="1545.64,-280.93 1556.21,-280.15 1547.46,-274.17 1545.64,-280.93"/>
</g>
<!-- gpower&#39;_mult -->
<g id="node25" class="node">
<title>gpower&#39;_mult</title>
<ellipse fill="none" stroke="black" cx="1658.37" cy="-126" rx="73.39" ry="18"/>
<text text-anchor="middle" x="1658.37" y="-122.3" font-family="Times,serif" font-size="14.00">gpower&#39;_mult</text>
</g>
<!-- gpower_order_plus_mult&#45;&gt;gpower&#39;_mult -->
<g id="edge27" class="edge">
<title>gpower_order_plus_mult&#45;&gt;gpower&#39;_mult</title>
<path fill="none" stroke="black" d="M1387.79,-167C1448.19,-157.81 1528.23,-145.64 1585.37,-136.95"/>
<polygon fill="black" stroke="black" points="1586.05,-140.39 1595.41,-135.42 1585,-133.47 1586.05,-140.39"/>
</g>
<!-- gpower&#39;_inv -->
<g id="node26" class="node">
<title>gpower&#39;_inv</title>
<ellipse fill="none" stroke="black" cx="1658.37" cy="-72" rx="66.09" ry="18"/>
<text text-anchor="middle" x="1658.37" y="-68.3" font-family="Times,serif" font-size="14.00">gpower&#39;_inv</text>
</g>
<!-- gpower_order_plus_mult&#45;&gt;gpower&#39;_inv -->
<g id="edge28" class="edge">
<title>gpower_order_plus_mult&#45;&gt;gpower&#39;_inv</title>
<path fill="none" stroke="black" d="M1339.36,-162.8C1379.89,-144.6 1447.14,-116.19 1507.58,-99 1533.61,-91.6 1562.78,-85.8 1588.42,-81.5"/>
<polygon fill="black" stroke="black" points="1589.12,-84.93 1598.42,-79.87 1587.99,-78.02 1589.12,-84.93"/>
</g>
<!-- gpower&#39;_unit -->
<g id="node27" class="node">
<title>gpower&#39;_unit</title>
<ellipse fill="none" stroke="black" cx="1658.37" cy="-18" rx="70.69" ry="18"/>
<text text-anchor="middle" x="1658.37" y="-14.3" font-family="Times,serif" font-size="14.00">gpower&#39;_unit</text>
</g>
<!-- gpower_order_plus_mult&#45;&gt;gpower&#39;_unit -->
<g id="edge29" class="edge">
<title>gpower_order_plus_mult&#45;&gt;gpower&#39;_unit</title>
<path fill="none" stroke="black" d="M1323.13,-162.08C1358.51,-132.67 1433.7,-74.51 1507.58,-45 1530.66,-35.78 1557,-29.69 1581.09,-25.68"/>
<polygon fill="black" stroke="black" points="1581.93,-29.09 1591.26,-24.08 1580.84,-22.17 1581.93,-29.09"/>
</g>
<!-- inv_unit -->
<g id="node28" class="node">
<title>inv_unit</title>
<ellipse fill="none" stroke="black" cx="1658.37" cy="-234" rx="48.19" ry="18"/>
<text text-anchor="middle" x="1658.37" y="-230.3" font-family="Times,serif" font-size="14.00">inv_unit</text>
</g>
<!-- gpower_order_plus_mult&#45;&gt;inv_unit -->
<g id="edge30" class="edge">
<title>gpower_order_plus_mult&#45;&gt;inv_unit</title>
<path fill="none" stroke="black" d="M1387.79,-193C1454.97,-203.22 1546.44,-217.13 1603.68,-225.84"/>
<polygon fill="black" stroke="black" points="1603.19,-229.3 1613.61,-227.35 1604.25,-222.38 1603.19,-229.3"/>
</g>
<!-- inv_inv -->
<g id="node29" class="node">
<title>inv_inv</title>
<ellipse fill="none" stroke="black" cx="1658.37" cy="-180" rx="43.59" ry="18"/>
<text text-anchor="middle" x="1658.37" y="-176.3" font-family="Times,serif" font-size="14.00">inv_inv</text>
</g>
<!-- gpower_order_plus_mult&#45;&gt;inv_inv -->
<g id="edge31" class="edge">
<title>gpower_order_plus_mult&#45;&gt;inv_inv</title>
<path fill="none" stroke="black" d="M1426.48,-180C1487.46,-180 1557.7,-180 1604.54,-180"/>
<polygon fill="black" stroke="black" points="1604.76,-183.5 1614.76,-180 1604.76,-176.5 1604.76,-183.5"/>
</g>
<!-- element_order3_full&#45;&gt;homomorphic_gpower -->
<g id="edge36" class="edge">
<title>element_order3_full&#45;&gt;homomorphic_gpower</title>
<path fill="none" stroke="black" d="M1384.65,-252.67C1437.01,-259.45 1505.06,-268.27 1560.08,-275.4"/>
<polygon fill="black" stroke="black" points="1559.83,-278.89 1570.19,-276.71 1560.73,-271.95 1559.83,-278.89"/>
</g>
<!-- element_order3_full&#45;&gt;gpower_inv -->
<g id="edge37" class="edge">
<title>element_order3_full&#45;&gt;gpower_inv</title>
<path fill="none" stroke="black" d="M1342.57,-258.53C1383.52,-274.82 1449.09,-299.44 1507.58,-315 1534.52,-322.17 1564.69,-328.01 1590.86,-332.41"/>
<polygon fill="black" stroke="black" points="1590.62,-335.91 1601.05,-334.08 1591.75,-329.01 1590.62,-335.91"/>
</g>
</g>
</svg>
